<svg xmlns="http://www.w3.org/2000/svg" xmlns:xlink="http://www.w3.org/1999/xlink" width="5000" zoomAndPan="magnify" viewBox="0 0 3750 3749.999967" height="5000" preserveAspectRatio="xMidYMid meet" version="1.0"><path fill="#ff3131" d="M 718.035156 954.855469 L 364.796875 750.898438 C -0.0507812 1382.800781 256.453125 2213.898438 888.359375 2578.761719 C 1252.761719 2789.152344 1675.707031 2806.148438 2038.46875 2661.753906 C 1754.820312 2703.085938 1455.769531 2652.828125 1188.25 2498.417969 C 621.121094 2170.972656 496.023438 1548.539062 718.035156 954.855469 " fill-opacity="1" fill-rule="nonzero"/><path fill="#ff5757" d="M 507.761719 2412.21875 L 154.523438 2616.132812 C 519.355469 3248.035156 1367.351562 3441.472656 1999.289062 3076.644531 C 2363.675781 2866.257812 2589.894531 2508.511719 2646.203125 2122.113281 C 2540.148438 2388.429688 2347.136719 2622.3125 2079.632812 2776.738281 C 1512.488281 3104.183594 910.914062 2901.308594 507.761719 2412.21875 " fill-opacity="1" fill-rule="nonzero"/><path fill="#ff3131" d="M 1664.726562 3322.957031 L 1664.726562 3730.859375 C 2394.402344 3730.859375 2985.898438 3093.199219 2985.898438 2363.523438 C 2985.898438 1942.730469 2789.1875 1567.9375 2482.703125 1325.984375 C 2660.359375 1550.972656 2766.367188 1835.0625 2766.367188 2143.996094 C 2766.367188 2798.832031 2289.890625 3218.410156 1664.726562 3322.957031 " fill-opacity="1" fill-rule="nonzero"/><path fill="#ff5757" d="M 3031.945312 2776.394531 L 3385.21875 2980.351562 C 3750.050781 2348.449219 3493.5625 1517.300781 2861.65625 1152.488281 C 2497.222656 942.097656 2074.289062 925.050781 1711.515625 1069.496094 C 1995.164062 1028.164062 2294.230469 1078.421875 2561.75 1232.832031 C 3128.878906 1560.277344 3253.957031 2182.710938 3031.945312 2776.394531 " fill-opacity="1" fill-rule="nonzero"/><path fill="#ff3131" d="M 3242.21875 1319.03125 L 3595.492188 1115.117188 C 3230.644531 483.179688 2382.664062 289.773438 1750.726562 654.605469 C 1386.339844 864.992188 1160.101562 1222.785156 1103.8125 1609.136719 C 1209.835938 1342.820312 1402.863281 1108.9375 1670.382812 954.480469 C 2237.496094 627.066406 2839.101562 829.941406 3242.21875 1319.03125 " fill-opacity="1" fill-rule="nonzero"/><path fill="#ff5757" d="M 2085.273438 408.292969 L 2085.273438 0.390625 C 1355.613281 0.390625 764.085938 638.050781 764.085938 1367.726562 C 764.085938 1788.519531 960.8125 2163.3125 1267.277344 2405.265625 C 1089.65625 2180.277344 983.632812 1896.1875 983.632812 1587.253906 C 983.632812 932.414062 1460.109375 512.839844 2085.273438 408.292969 " fill-opacity="1" fill-rule="nonzero"/></svg>