<svg xmlns="http://www.w3.org/2000/svg" xmlns:xlink="http://www.w3.org/1999/xlink" width="500" zoomAndPan="magnify" viewBox="0 0 375 374.999991" height="500" preserveAspectRatio="xMidYMid meet" version="1.0"><defs><g/><clipPath id="9f9fe6933b"><path d="M 157.214844 132 L 178 132 L 178 162 L 157.214844 162 Z M 157.214844 132 " clip-rule="nonzero"/></clipPath><clipPath id="21de0511af"><path d="M 157.214844 131 L 179 131 L 179 163 L 157.214844 163 Z M 157.214844 131 " clip-rule="nonzero"/></clipPath><clipPath id="ce7f95d6df"><path d="M 197 132 L 217.964844 132 L 217.964844 162 L 197 162 Z M 197 132 " clip-rule="nonzero"/></clipPath><clipPath id="68a4d7e76a"><path d="M 196 131 L 217.964844 131 L 217.964844 163 L 196 163 Z M 196 131 " clip-rule="nonzero"/></clipPath><clipPath id="d885be54bd"><path d="M 176 123.375 L 198 123.375 L 198 170.625 L 176 170.625 Z M 176 123.375 " clip-rule="nonzero"/></clipPath></defs><rect x="-37.5" width="450" fill="#ffffff" y="-37.499999" height="449.999989" fill-opacity="1"/><rect x="-37.5" width="450" fill="#171810" y="-37.499999" height="449.999989" fill-opacity="1"/><g clip-path="url(#9f9fe6933b)"><path fill="#03fa6e" d="M 176.320312 161.707031 C 175.988281 161.707031 175.65625 161.59375 175.394531 161.386719 L 158.457031 148.058594 C 158.09375 147.773438 157.882812 147.34375 157.882812 146.882812 C 157.882812 146.417969 158.09375 145.988281 158.457031 145.703125 L 175.394531 132.378906 C 175.65625 132.167969 175.988281 132.058594 176.320312 132.058594 C 176.785156 132.058594 177.214844 132.261719 177.5 132.628906 C 177.746094 132.941406 177.859375 133.335938 177.8125 133.734375 C 177.765625 134.132812 177.5625 134.488281 177.25 134.734375 L 161.8125 146.882812 L 177.25 159.027344 C 177.5625 159.277344 177.765625 159.632812 177.8125 160.027344 C 177.859375 160.425781 177.746094 160.816406 177.5 161.136719 C 177.214844 161.496094 176.785156 161.707031 176.320312 161.707031 " fill-opacity="1" fill-rule="nonzero"/></g><g clip-path="url(#21de0511af)"><path fill="#2a446b" d="M 176.320312 131.417969 C 175.84375 131.417969 175.375 131.578125 175 131.875 L 158.0625 145.199219 C 157.542969 145.613281 157.246094 146.222656 157.246094 146.882812 C 157.246094 147.542969 157.542969 148.15625 158.0625 148.5625 L 175 161.886719 C 175.375 162.183594 175.84375 162.347656 176.320312 162.347656 C 176.984375 162.347656 177.597656 162.046875 178.003906 161.527344 C 178.359375 161.082031 178.511719 160.523438 178.445312 159.953125 C 178.378906 159.386719 178.09375 158.878906 177.644531 158.527344 L 162.84375 146.882812 L 177.644531 135.238281 C 178.09375 134.882812 178.378906 134.375 178.445312 133.808594 C 178.511719 133.242188 178.359375 132.683594 178.003906 132.234375 C 177.597656 131.714844 176.980469 131.417969 176.320312 131.417969 Z M 176.320312 132.695312 C 176.578125 132.695312 176.828125 132.808594 177 133.023438 C 177.292969 133.398438 177.226562 133.941406 176.855469 134.234375 L 160.777344 146.882812 L 176.855469 159.53125 C 177.226562 159.824219 177.292969 160.367188 177 160.738281 C 176.828125 160.957031 176.578125 161.070312 176.320312 161.070312 C 176.132812 161.070312 175.949219 161.007812 175.789062 160.882812 L 158.851562 147.558594 C 158.644531 147.394531 158.523438 147.144531 158.523438 146.882812 C 158.523438 146.617188 158.644531 146.367188 158.851562 146.203125 L 175.789062 132.878906 C 175.945312 132.753906 176.132812 132.695312 176.320312 132.695312 " fill-opacity="1" fill-rule="nonzero"/></g><g clip-path="url(#ce7f95d6df)"><path fill="#03fa6e" d="M 198.667969 161.707031 C 198.207031 161.707031 197.777344 161.496094 197.488281 161.136719 C 196.976562 160.484375 197.089844 159.539062 197.742188 159.027344 L 213.179688 146.882812 L 197.742188 134.734375 C 197.089844 134.222656 196.976562 133.277344 197.488281 132.628906 C 197.777344 132.261719 198.207031 132.058594 198.667969 132.058594 C 199.003906 132.058594 199.332031 132.167969 199.597656 132.378906 L 216.535156 145.703125 C 216.898438 145.988281 217.105469 146.417969 217.105469 146.882812 C 217.105469 147.34375 216.898438 147.773438 216.53125 148.058594 L 199.597656 161.386719 C 199.332031 161.59375 199.003906 161.707031 198.667969 161.707031 " fill-opacity="1" fill-rule="nonzero"/></g><g clip-path="url(#68a4d7e76a)"><path fill="#2a446b" d="M 198.667969 131.417969 C 198.007812 131.417969 197.394531 131.714844 196.988281 132.234375 C 196.257812 133.160156 196.417969 134.507812 197.34375 135.238281 L 212.144531 146.882812 L 197.34375 158.527344 C 196.417969 159.253906 196.257812 160.601562 196.988281 161.527344 C 197.394531 162.046875 198.007812 162.347656 198.667969 162.347656 C 199.148438 162.347656 199.613281 162.183594 199.988281 161.886719 L 216.929688 148.5625 C 217.445312 148.15625 217.742188 147.542969 217.742188 146.882812 C 217.742188 146.222656 217.445312 145.613281 216.929688 145.199219 L 199.992188 131.875 C 199.617188 131.578125 199.148438 131.417969 198.667969 131.417969 Z M 198.667969 132.695312 C 198.855469 132.695312 199.042969 132.753906 199.199219 132.878906 L 216.140625 146.203125 C 216.347656 146.367188 216.464844 146.617188 216.464844 146.882812 C 216.464844 147.144531 216.347656 147.394531 216.140625 147.558594 L 199.199219 160.882812 C 199.042969 161.007812 198.855469 161.070312 198.667969 161.070312 C 198.414062 161.070312 198.160156 160.957031 197.992188 160.738281 C 197.699219 160.367188 197.761719 159.824219 198.136719 159.53125 L 214.210938 146.882812 L 198.136719 134.234375 C 197.761719 133.941406 197.699219 133.398438 197.992188 133.023438 C 198.160156 132.808594 198.414062 132.695312 198.667969 132.695312 " fill-opacity="1" fill-rule="nonzero"/></g><path fill="#03fa6e" d="M 179.078125 169.75 C 178.890625 169.75 178.710938 169.710938 178.535156 169.644531 C 178.164062 169.5 177.867188 169.21875 177.707031 168.855469 C 177.542969 168.484375 177.535156 168.078125 177.679688 167.707031 L 194.21875 124.972656 C 194.441406 124.402344 195.003906 124.015625 195.617188 124.015625 C 195.804688 124.015625 195.988281 124.050781 196.164062 124.117188 C 196.929688 124.417969 197.316406 125.289062 197.019531 126.058594 L 180.476562 168.789062 C 180.257812 169.363281 179.691406 169.75 179.078125 169.75 " fill-opacity="1" fill-rule="nonzero"/><g clip-path="url(#d885be54bd)"><path fill="#2a446b" d="M 195.617188 123.375 C 194.742188 123.375 193.9375 123.929688 193.625 124.742188 L 177.082031 167.472656 C 176.878906 168.007812 176.890625 168.589844 177.121094 169.113281 C 177.351562 169.632812 177.773438 170.035156 178.304688 170.242188 C 178.554688 170.339844 178.8125 170.386719 179.078125 170.386719 C 179.953125 170.386719 180.757812 169.835938 181.074219 169.019531 L 197.613281 126.289062 C 198.039062 125.1875 197.492188 123.945312 196.390625 123.523438 C 196.144531 123.425781 195.882812 123.375 195.617188 123.375 Z M 195.617188 124.652344 C 195.722656 124.652344 195.828125 124.675781 195.929688 124.714844 C 196.375 124.882812 196.59375 125.382812 196.421875 125.828125 L 179.878906 168.558594 C 179.75 168.898438 179.421875 169.109375 179.078125 169.109375 C 178.972656 169.109375 178.867188 169.089844 178.765625 169.050781 C 178.320312 168.878906 178.101562 168.378906 178.277344 167.9375 L 194.816406 125.207031 C 194.949219 124.863281 195.273438 124.652344 195.617188 124.652344 " fill-opacity="1" fill-rule="nonzero"/></g><g fill="#ffffff" fill-opacity="1"><g transform="translate(80.9373, 216.116295)"><g><path d="M 33.675781 0 L 21.042969 -33.59375 L 13.132812 -33.59375 L 0.578125 0 L 7.289062 0 L 10.3125 -8.53125 L 23.902344 -8.53125 L 26.925781 0 Z M 21.871094 -14.125 L 12.300781 -14.125 L 17.066406 -27.214844 Z M 21.871094 -14.125 "/></g></g></g><g fill="#ffffff" fill-opacity="1"><g transform="translate(113.612589, 216.116295)"><g><path d="M 8.824219 0 L 8.824219 -33.59375 L 2.238281 -33.59375 L 2.238281 0 Z M 8.824219 0 "/></g></g></g><g fill="#ffffff" fill-opacity="1"><g transform="translate(123.096027, 216.116295)"><g><path d="M 26.304688 -11.101562 C 26.304688 -19.59375 21.664062 -24.730469 14.042969 -24.730469 C 6.503906 -24.730469 1.65625 -19.511719 1.65625 -12.09375 L 1.65625 -12.054688 C 1.65625 -4.515625 6.835938 0.621094 14.828125 0.621094 C 19.46875 0.621094 22.742188 -0.828125 25.144531 -2.320312 L 22.285156 -7.414062 C 20.546875 -6.171875 18.019531 -5.136719 15.121094 -5.136719 C 11.515625 -5.136719 9.15625 -7.457031 8.492188 -10.519531 L 26.304688 -10.519531 Z M 14 -19.386719 C 17.191406 -19.386719 19.097656 -17.316406 19.59375 -14.582031 L 8.53125 -14.582031 C 9.15625 -17.316406 11.144531 -19.386719 14 -19.386719 Z M 14 -19.386719 "/></g></g></g><g fill="#ffffff" fill-opacity="1"><g transform="translate(149.517796, 216.116295)"><g><path d="M 17.230469 -12.34375 L 25.890625 -23.777344 L 18.472656 -23.777344 L 13.546875 -17.230469 L 8.699219 -23.777344 L 1.078125 -23.777344 L 9.691406 -12.136719 L 0.578125 0 L 7.789062 0 L 13.296875 -7.207031 L 18.722656 0 L 26.386719 0 Z M 17.230469 -12.34375 "/></g></g></g><g fill="#ffffff" fill-opacity="1"><g transform="translate(174.862801, 216.116295)"><g><path d="M 13.339844 -24.605469 C 10.3125 -24.605469 6.792969 -23.941406 5.011719 -23.238281 L 3.5625 -17.398438 C 6.171875 -18.433594 9.570312 -19.054688 11.929688 -19.054688 C 15.574219 -19.054688 17.644531 -17.976562 17.644531 -14.996094 L 17.644531 -14.125 C 15.699219 -14.375 14 -14.457031 12.261719 -14.457031 C 5.757812 -14.457031 1.65625 -12.136719 1.65625 -7.082031 L 1.65625 -7 C 1.65625 -1.410156 6.171875 0.664062 13.460938 0.664062 C 16.691406 0.664062 20.960938 0.207031 24.230469 -0.496094 L 24.230469 -15.203125 C 24.230469 -22.242188 19.925781 -24.605469 13.339844 -24.605469 Z M 8.410156 -7.414062 C 8.410156 -9.527344 10.398438 -10.273438 13.710938 -10.273438 C 14.746094 -10.273438 16.320312 -10.148438 17.644531 -9.941406 L 17.644531 -4.804688 C 16.277344 -4.597656 14.828125 -4.472656 13.710938 -4.472656 C 10.355469 -4.472656 8.410156 -5.300781 8.410156 -7.332031 Z M 8.410156 -7.414062 "/></g></g></g><g fill="#ffffff" fill-opacity="1"><g transform="translate(199.669425, 216.116295)"><g><path d="M 8.824219 0 L 8.824219 -18.433594 C 10.355469 -18.679688 11.847656 -18.847656 13.007812 -18.847656 C 16.070312 -18.847656 17.730469 -17.730469 17.730469 -14.746094 L 17.730469 0 L 24.273438 0 L 24.273438 -15.535156 C 24.273438 -22.65625 19.179688 -24.730469 13.296875 -24.730469 C 10.894531 -24.730469 6.214844 -24.191406 2.238281 -23.488281 L 2.238281 0 Z M 8.824219 0 "/></g></g></g><g fill="#ffffff" fill-opacity="1"><g transform="translate(224.641713, 216.116295)"><g><path d="M 14.871094 0.664062 C 19.304688 0.664062 22.285156 0 25.683594 -1.65625 L 25.683594 -33.59375 L 19.136719 -33.59375 L 19.136719 -24.109375 C 17.6875 -24.4375 16.15625 -24.730469 14.621094 -24.730469 C 6.503906 -24.730469 1.699219 -19.386719 1.699219 -12.09375 L 1.699219 -12.011719 C 1.699219 -4.722656 6.75 0.664062 14.871094 0.664062 Z M 14.871094 -5.21875 C 10.5625 -5.21875 8.285156 -8.203125 8.285156 -12.011719 L 8.285156 -12.09375 C 8.285156 -15.90625 10.5625 -18.847656 14.871094 -18.847656 C 16.320312 -18.847656 17.851562 -18.515625 19.136719 -18.226562 L 19.136719 -5.757812 C 17.851562 -5.425781 16.445312 -5.21875 14.871094 -5.21875 Z M 14.871094 -5.21875 "/></g></g></g><g fill="#ffffff" fill-opacity="1"><g transform="translate(251.02206, 216.116295)"><g><path d="M 26.304688 -11.101562 C 26.304688 -19.59375 21.664062 -24.730469 14.042969 -24.730469 C 6.503906 -24.730469 1.65625 -19.511719 1.65625 -12.09375 L 1.65625 -12.054688 C 1.65625 -4.515625 6.835938 0.621094 14.828125 0.621094 C 19.46875 0.621094 22.742188 -0.828125 25.144531 -2.320312 L 22.285156 -7.414062 C 20.546875 -6.171875 18.019531 -5.136719 15.121094 -5.136719 C 11.515625 -5.136719 9.15625 -7.457031 8.492188 -10.519531 L 26.304688 -10.519531 Z M 14 -19.386719 C 17.191406 -19.386719 19.097656 -17.316406 19.59375 -14.582031 L 8.53125 -14.582031 C 9.15625 -17.316406 11.144531 -19.386719 14 -19.386719 Z M 14 -19.386719 "/></g></g></g><g fill="#ffffff" fill-opacity="1"><g transform="translate(277.443834, 216.116295)"><g><path d="M 8.824219 0 L 8.824219 -17.398438 C 9.363281 -17.523438 12.054688 -17.730469 13.046875 -17.730469 L 16.609375 -17.730469 L 16.609375 -23.777344 L 11.972656 -23.777344 C 9.816406 -23.777344 5.714844 -23.609375 2.238281 -22.863281 L 2.238281 0 Z M 8.824219 0 "/></g></g></g><g fill="#03fa6e" fill-opacity="1"><g transform="translate(138.147849, 245.299906)"><g><path d="M 6.90625 0.308594 C 8.964844 0.308594 10.351562 0 11.925781 -0.769531 L 11.925781 -15.601562 L 8.886719 -15.601562 L 8.886719 -11.195312 C 8.214844 -11.351562 7.503906 -11.484375 6.789062 -11.484375 C 3.019531 -11.484375 0.789062 -9.003906 0.789062 -5.617188 L 0.789062 -5.578125 C 0.789062 -2.191406 3.136719 0.308594 6.90625 0.308594 Z M 6.90625 -2.425781 C 4.90625 -2.425781 3.847656 -3.808594 3.847656 -5.578125 L 3.847656 -5.617188 C 3.847656 -7.386719 4.90625 -8.753906 6.90625 -8.753906 C 7.578125 -8.753906 8.292969 -8.597656 8.886719 -8.464844 L 8.886719 -2.675781 C 8.292969 -2.519531 7.636719 -2.425781 6.90625 -2.425781 Z M 6.90625 -2.425781 "/></g></g></g><g fill="#03fa6e" fill-opacity="1"><g transform="translate(150.397346, 245.299906)"><g><path d="M 12.214844 -5.15625 C 12.214844 -9.097656 10.0625 -11.484375 6.523438 -11.484375 C 3.019531 -11.484375 0.769531 -9.0625 0.769531 -5.617188 L 0.769531 -5.597656 C 0.769531 -2.097656 3.175781 0.289062 6.886719 0.289062 C 9.042969 0.289062 10.5625 -0.382812 11.675781 -1.078125 L 10.351562 -3.445312 C 9.542969 -2.867188 8.367188 -2.386719 7.023438 -2.386719 C 5.347656 -2.386719 4.25 -3.460938 3.945312 -4.886719 L 12.214844 -4.886719 Z M 6.503906 -9.003906 C 7.984375 -9.003906 8.867188 -8.042969 9.097656 -6.773438 L 3.964844 -6.773438 C 4.25 -8.042969 5.175781 -9.003906 6.503906 -9.003906 Z M 6.503906 -9.003906 "/></g></g></g><g fill="#03fa6e" fill-opacity="1"><g transform="translate(162.666068, 245.299906)"><g><path d="M 6.097656 -2.15625 L 3.425781 -11.042969 L 0.230469 -11.042969 L 4 0 L 8.195312 0 L 11.964844 -11.042969 L 8.773438 -11.042969 Z M 6.097656 -2.15625 "/></g></g></g><g fill="#03fa6e" fill-opacity="1"><g transform="translate(174.12711, 245.299906)"><g><path d="M 12.214844 -5.15625 C 12.214844 -9.097656 10.0625 -11.484375 6.523438 -11.484375 C 3.019531 -11.484375 0.769531 -9.0625 0.769531 -5.617188 L 0.769531 -5.597656 C 0.769531 -2.097656 3.175781 0.289062 6.886719 0.289062 C 9.042969 0.289062 10.5625 -0.382812 11.675781 -1.078125 L 10.351562 -3.445312 C 9.542969 -2.867188 8.367188 -2.386719 7.023438 -2.386719 C 5.347656 -2.386719 4.25 -3.460938 3.945312 -4.886719 L 12.214844 -4.886719 Z M 6.503906 -9.003906 C 7.984375 -9.003906 8.867188 -8.042969 9.097656 -6.773438 L 3.964844 -6.773438 C 4.25 -8.042969 5.175781 -9.003906 6.503906 -9.003906 Z M 6.503906 -9.003906 "/></g></g></g><g fill="#03fa6e" fill-opacity="1"><g transform="translate(186.395834, 245.299906)"><g><path d="M 4.097656 0 L 4.097656 -15.601562 L 1.039062 -15.601562 L 1.039062 0 Z M 4.097656 0 "/></g></g></g><g fill="#03fa6e" fill-opacity="1"><g transform="translate(190.799263, 245.299906)"><g><path d="M 6.90625 0.308594 C 10.523438 0.308594 13.042969 -2.191406 13.042969 -5.597656 L 13.042969 -5.617188 C 13.042969 -9.003906 10.523438 -11.484375 6.90625 -11.484375 C 3.289062 -11.484375 0.789062 -9.003906 0.789062 -5.617188 L 0.789062 -5.597656 C 0.789062 -2.191406 3.308594 0.308594 6.90625 0.308594 Z M 6.90625 -2.425781 C 5.078125 -2.425781 3.847656 -3.808594 3.847656 -5.597656 L 3.847656 -5.636719 C 3.847656 -7.40625 5.058594 -8.753906 6.90625 -8.753906 C 8.773438 -8.753906 9.964844 -7.40625 9.964844 -5.636719 L 9.964844 -5.597656 C 9.964844 -3.808594 8.753906 -2.425781 6.90625 -2.425781 Z M 6.90625 -2.425781 "/></g></g></g><g fill="#03fa6e" fill-opacity="1"><g transform="translate(203.875665, 245.299906)"><g><path d="M 4.097656 4.230469 L 4.097656 -0.0195312 C 4.769531 0.152344 5.484375 0.289062 6.195312 0.289062 C 9.945312 0.289062 12.195312 -2.191406 12.195312 -5.558594 L 12.195312 -5.597656 C 12.195312 -8.984375 9.832031 -11.484375 6.058594 -11.484375 C 4 -11.484375 2.367188 -10.964844 1.039062 -10.425781 L 1.039062 4.230469 Z M 6.058594 -2.441406 C 5.40625 -2.441406 4.695312 -2.597656 4.097656 -2.75 L 4.097656 -8.523438 C 4.695312 -8.675781 5.347656 -8.753906 6.058594 -8.753906 C 8.078125 -8.753906 9.117188 -7.386719 9.117188 -5.597656 L 9.117188 -5.558594 C 9.117188 -3.789062 8.078125 -2.441406 6.058594 -2.441406 Z M 6.058594 -2.441406 "/></g></g></g><g fill="#03fa6e" fill-opacity="1"><g transform="translate(216.125163, 245.299906)"><g><path d="M 12.214844 -5.15625 C 12.214844 -9.097656 10.0625 -11.484375 6.523438 -11.484375 C 3.019531 -11.484375 0.769531 -9.0625 0.769531 -5.617188 L 0.769531 -5.597656 C 0.769531 -2.097656 3.175781 0.289062 6.886719 0.289062 C 9.042969 0.289062 10.5625 -0.382812 11.675781 -1.078125 L 10.351562 -3.445312 C 9.542969 -2.867188 8.367188 -2.386719 7.023438 -2.386719 C 5.347656 -2.386719 4.25 -3.460938 3.945312 -4.886719 L 12.214844 -4.886719 Z M 6.503906 -9.003906 C 7.984375 -9.003906 8.867188 -8.042969 9.097656 -6.773438 L 3.964844 -6.773438 C 4.25 -8.042969 5.175781 -9.003906 6.503906 -9.003906 Z M 6.503906 -9.003906 "/></g></g></g><g fill="#03fa6e" fill-opacity="1"><g transform="translate(228.393886, 245.299906)"><g><path d="M 4.097656 0 L 4.097656 -8.078125 C 4.347656 -8.136719 5.597656 -8.234375 6.058594 -8.234375 L 7.714844 -8.234375 L 7.714844 -11.042969 L 5.558594 -11.042969 C 4.558594 -11.042969 2.65625 -10.964844 1.039062 -10.617188 L 1.039062 0 Z M 4.097656 0 "/></g></g></g></svg>